<?xml version="1.0" standalone="no"?>
<!DOCTYPE svg PUBLIC "-//W3C//DTD SVG 20010904//EN"
 "http://www.w3.org/TR/2001/REC-SVG-20010904/DTD/svg10.dtd">
<svg version="1.0" xmlns="http://www.w3.org/2000/svg"
 width="480.000000pt" height="480.000000pt" viewBox="0 0 480.000000 480.000000"
 preserveAspectRatio="xMidYMid meet">
<metadata>
Created by potrace 1.16, written by Peter Selinger 2001-2019
</metadata>
<g transform="translate(0.000000,480.000000) scale(0.100000,-0.100000)"
fill="#000000" stroke="none">
<path d="M2085 4784 c-529 -71 -1011 -310 -1385 -684 -378 -377 -615 -860
-685 -1393 -20 -154 -20 -459 0 -614 70 -531 304 -1012 675 -1383 227 -228
474 -396 760 -519 201 -87 271 -94 329 -36 l26 25 3 256 3 256 -23 -5 c-13 -3
-72 -11 -133 -18 -309 -32 -542 61 -631 254 -98 212 -189 340 -280 393 -44 26
-104 86 -104 105 0 21 74 41 133 36 121 -11 230 -92 347 -258 79 -111 130
-158 215 -199 120 -59 267 -62 423 -9 l59 20 13 61 c16 75 67 183 110 232 18
20 31 38 29 40 -2 1 -44 9 -94 16 -612 86 -929 405 -986 991 -14 149 -7 294
21 409 26 107 103 266 169 347 46 57 50 65 40 90 -53 139 -52 332 3 521 25 86
39 97 114 87 130 -16 278 -74 449 -176 l119 -71 96 21 c189 42 298 54 500 54
209 0 296 -8 487 -49 l121 -26 94 57 c182 111 321 167 459 187 95 14 102 10
128 -81 47 -159 54 -320 21 -459 -11 -46 -20 -86 -20 -90 0 -4 24 -40 54 -79
159 -211 215 -474 172 -799 -73 -551 -387 -851 -981 -934 -49 -7 -92 -14 -94
-16 -2 -2 12 -22 32 -46 43 -54 80 -127 103 -204 14 -50 18 -123 23 -492 l6
-434 27 -23 c66 -57 152 -38 423 95 493 240 879 629 1116 1125 156 325 229
657 229 1035 0 291 -32 493 -120 762 -286 871 -1055 1503 -1973 1623 -146 19
-481 18 -622 -1z"/>
</g>
</svg>
