<?xml version="1.0" standalone="no"?>
<!DOCTYPE svg PUBLIC "-//W3C//DTD SVG 20010904//EN"
 "http://www.w3.org/TR/2001/REC-SVG-20010904/DTD/svg10.dtd">
<svg version="1.0" xmlns="http://www.w3.org/2000/svg"
 width="750.000000pt" height="718.000000pt" viewBox="0 0 750.000000 718.000000"
 preserveAspectRatio="xMidYMid meet">
<metadata>
Created by potrace 1.16, written by Peter Selinger 2001-2019
</metadata>
<g transform="translate(0.000000,718.000000) scale(0.100000,-0.100000)"
fill="#000000" stroke="none">
<path d="M0 3590 l0 -3590 3750 0 3750 0 0 3590 0 3590 -3750 0 -3750 0 0
-3590z m3558 1793 c2 -17 -22 -240 -53 -495 -202 -1673 -265 -2188 -270 -2226
-12 -83 -7 -82 -329 -82 -245 0 -287 2 -300 16 -9 8 -16 19 -16 23 0 7 45 386
246 2061 47 393 90 721 96 728 8 9 80 12 317 10 l306 -3 3 -32z m1314 20 c5
-2 8 -20 8 -38 0 -77 -361 -2905 -381 -2980 -76 -294 -244 -463 -537 -538 -80
-20 -110 -22 -382 -22 -318 0 -365 6 -375 48 -7 30 30 306 43 319 17 17 90 27
192 28 119 0 247 16 294 35 56 24 101 70 130 134 31 69 15 -50 231 1726 148
1220 155 1271 177 1289 22 17 38 18 308 11 157 -4 288 -9 292 -12z"/>
</g>
</svg>
