<?xml version="1.0" standalone="no"?>
<!DOCTYPE svg PUBLIC "-//W3C//DTD SVG 20010904//EN"
 "http://www.w3.org/TR/2001/REC-SVG-20010904/DTD/svg10.dtd">
<svg version="1.0" xmlns="http://www.w3.org/2000/svg"
 width="750.000000pt" height="718.000000pt" viewBox="0 0 750.000000 718.000000"
 preserveAspectRatio="xMidYMid meet">
<metadata>
Created by potrace 1.16, written by Peter Selinger 2001-2019
</metadata>
<g transform="translate(0.000000,718.000000) scale(0.100000,-0.100000)"
fill="#000000" stroke="none">
<path d="M0 3590 l0 -3590 3750 0 3750 0 0 3590 0 3590 -3750 0 -3750 0 0
-3590z m3100 1270 c0 -11 -22 -107 -49 -213 -27 -105 -51 -210 -53 -232 l-3
-40 272 0 c172 0 276 -4 282 -10 22 -22 -30 -335 -73 -436 -20 -47 -30 -49
-333 -49 l-243 0 -15 -23 c-16 -24 -42 -128 -141 -552 -57 -240 -59 -256 -59
-385 l0 -135 48 -24 c71 -35 151 -38 321 -10 80 12 148 20 151 18 8 -9 -31
-226 -56 -304 -35 -114 -40 -120 -111 -138 -168 -42 -597 -49 -738 -12 -145
39 -235 108 -287 222 -32 69 -41 193 -23 314 13 94 93 453 140 629 29 112 80
355 80 385 0 13 -30 15 -209 15 -115 0 -223 3 -241 6 l-32 7 7 61 c12 117 36
240 64 325 l27 86 49 7 c28 3 137 7 243 7 l193 1 16 38 c8 20 35 115 59 210
54 216 62 240 88 245 12 2 157 5 324 6 296 1 302 1 302 -19z m2058 -501 c137
-23 204 -43 295 -91 83 -44 203 -164 246 -246 87 -166 95 -465 20 -718 -18
-61 -28 -78 -48 -87 -19 -8 -230 -12 -738 -12 -494 0 -716 -4 -723 -11 -8 -8
-7 -30 4 -78 38 -164 125 -271 261 -323 103 -40 176 -53 296 -53 172 0 283 28
597 152 112 44 207 77 210 74 17 -17 -68 -415 -104 -492 -21 -44 -89 -76 -257
-119 -224 -58 -316 -70 -562 -70 -237 0 -317 10 -490 60 -170 49 -312 138
-417 262 -201 237 -232 679 -73 1047 237 549 798 815 1483 705z"/>
<path d="M4730 3974 c-116 -23 -233 -86 -320 -174 -59 -59 -139 -184 -127
-196 22 -22 643 -28 801 -7 l48 6 -4 76 c-9 140 -71 232 -183 272 -58 20 -167
32 -215 23z"/>
</g>
</svg>
